<svg xmlns="http://www.w3.org/2000/svg" viewBox="0 0 811 64" width="811" height="64" role="img" aria-label="My Drone Can Fly Better">
  <title>My Drone Can Fly Better</title>
  <rect x="0.00" y="0.00" width="64.20" height="64.20" rx="14.12" fill="#0a0b12"/>
  <g stroke="#c6ff5e" stroke-width="6.42" stroke-linecap="round" fill="none"><path d="M19.26 42.37L29.53 21.83"/><path d="M34.67 42.37L44.94 21.83"/></g>
  <path transform="translate(84.93 48.82)" d="M25.58 -33.44H33.28Q34.37 -33.44 34.37 -32.34V-1.09Q34.37 0.00 33.28 0.00H29.02Q27.92 0.00 27.92 -1.09V-25.74H27.72L22.41 -8.32Q22.10 -7.28 21.11 -7.28H16.74Q15.76 -7.28 15.44 -8.32L10.04 -25.79H9.83V-1.09Q9.83 -0.47 9.62 -0.23Q9.41 0.00 8.74 0.00H4.47Q3.38 0.00 3.38 -1.09V-32.34Q3.38 -33.44 4.47 -33.44H12.22Q12.95 -33.44 13.21 -32.71L18.72 -14.35H19.03L24.60 -32.71Q24.75 -33.44 25.58 -33.44ZM60.68 0.00H56.26Q55.17 0.00 55.17 -1.09V-12.22L45.66 -32.29Q45.45 -32.76 45.68 -33.10Q45.92 -33.44 46.38 -33.44H51.90Q52.73 -33.44 53.14 -32.34L58.34 -19.71H58.71L63.80 -32.34Q64.17 -33.44 65.05 -33.44H70.56Q71.08 -33.44 71.32 -33.12Q71.55 -32.81 71.29 -32.29L61.78 -12.22V-1.09Q61.78 0.00 60.68 0.00ZM108.47 -5.72H114.14Q115.80 -5.72 116.51 -6.42Q117.21 -7.12 117.21 -8.79V-24.65Q117.21 -26.31 116.51 -27.01Q115.80 -27.72 114.14 -27.72H108.47Q107.90 -27.72 107.90 -27.14V-6.29Q107.90 -5.72 108.47 -5.72ZM101.30 -1.09V-32.34Q101.30 -33.44 102.39 -33.44H115.23Q119.29 -33.44 121.55 -31.23Q123.81 -29.02 123.81 -24.96V-8.48Q123.81 -4.42 121.55 -2.21Q119.29 0.00 115.23 0.00H102.39Q101.30 0.00 101.30 -1.09ZM142.84 0.00H138.42Q137.33 0.00 137.33 -1.09V-32.34Q137.33 -33.44 138.42 -33.44H150.80Q154.86 -33.44 157.14 -31.20Q159.43 -28.96 159.43 -24.91V-20.85Q159.43 -14.98 154.80 -13.05V-12.84L160.37 -1.25Q160.84 0.00 159.48 0.00H155.27Q154.34 0.00 153.92 -0.21Q153.50 -0.42 153.24 -1.09L148.04 -12.32H144.56Q143.94 -12.32 143.94 -11.75V-1.09Q143.94 0.00 142.84 0.00ZM144.51 -17.63H149.60Q151.27 -17.63 152.05 -18.33Q152.83 -19.03 152.83 -20.59V-24.65Q152.83 -26.26 152.05 -26.99Q151.27 -27.72 149.60 -27.72H144.51Q143.94 -27.72 143.94 -27.14V-18.20Q143.94 -17.63 144.51 -17.63ZM182.16 -5.72H185.85Q187.51 -5.72 188.21 -6.42Q188.92 -7.12 188.92 -8.79V-24.65Q188.92 -26.31 188.21 -27.01Q187.51 -27.72 185.85 -27.72H182.16Q180.49 -27.72 179.82 -27.01Q179.14 -26.31 179.14 -24.65V-8.79Q179.14 -7.12 179.82 -6.42Q180.49 -5.72 182.16 -5.72ZM186.94 0.00H181.12Q177.01 0.00 174.77 -2.18Q172.54 -4.37 172.54 -8.48V-24.96Q172.54 -29.07 174.77 -31.25Q177.01 -33.44 181.12 -33.44H186.94Q191.05 -33.44 193.28 -31.25Q195.52 -29.07 195.52 -24.96V-8.48Q195.52 -4.37 193.28 -2.18Q191.05 0.00 186.94 0.00ZM214.45 0.00H210.13Q209.04 0.00 209.04 -1.09V-32.34Q209.04 -33.44 210.13 -33.44H214.03Q215.12 -33.44 215.49 -32.71L225.99 -13.00H226.20V-32.34Q226.20 -33.44 227.29 -33.44H231.61Q232.70 -33.44 232.70 -32.34V-1.09Q232.70 0.00 231.61 0.00H227.81Q226.67 0.00 226.15 -1.04L215.75 -20.38H215.54V-1.09Q215.54 0.00 214.45 0.00ZM264.84 0.00H247.83Q246.74 0.00 246.74 -1.09V-32.34Q246.74 -33.44 247.83 -33.44H264.84Q265.88 -33.44 265.88 -32.34V-28.81Q265.88 -27.72 264.84 -27.72H253.97Q253.34 -27.72 253.34 -27.14V-20.38Q253.34 -19.81 253.97 -19.81H262.86Q263.95 -19.81 263.95 -18.72V-15.18Q263.95 -14.09 262.86 -14.09H253.97Q253.34 -14.09 253.34 -13.52V-6.29Q253.34 -5.72 253.97 -5.72H264.84Q265.88 -5.72 265.88 -4.63V-1.09Q265.88 0.00 264.84 0.00ZM311.38 0.00H305.71Q301.60 0.00 299.36 -2.18Q297.13 -4.37 297.13 -8.48V-24.96Q297.13 -29.07 299.36 -31.25Q301.60 -33.44 305.71 -33.44H311.38Q315.43 -33.44 317.69 -31.23Q319.96 -29.02 319.96 -24.96V-22.52Q319.96 -21.37 318.81 -21.37H314.44Q313.35 -21.37 313.35 -22.52V-24.65Q313.35 -26.31 312.65 -27.01Q311.95 -27.72 310.28 -27.72H306.75Q305.14 -27.72 304.43 -27.01Q303.73 -26.31 303.73 -24.65V-8.79Q303.73 -7.12 304.43 -6.42Q305.14 -5.72 306.75 -5.72H310.28Q311.95 -5.72 312.65 -6.42Q313.35 -7.12 313.35 -8.79V-10.92Q313.35 -12.06 314.44 -12.06H318.81Q319.96 -12.06 319.96 -10.92V-8.48Q319.96 -4.42 317.69 -2.21Q315.43 0.00 311.38 0.00ZM336.39 0.00H331.40Q330.46 0.00 330.77 -1.09L338.99 -32.34Q339.35 -33.44 340.55 -33.44H347.46Q348.76 -33.44 349.02 -32.34L357.24 -1.09Q357.55 0.00 356.62 0.00H351.62Q351.05 0.00 350.84 -0.23Q350.64 -0.47 350.53 -1.09L349.08 -6.81H338.94L337.48 -1.09Q337.38 -0.47 337.14 -0.23Q336.91 0.00 336.39 0.00ZM343.93 -27.14 340.18 -12.12H347.88L344.14 -27.14ZM374.56 0.00H370.24Q369.15 0.00 369.15 -1.09V-32.34Q369.15 -33.44 370.24 -33.44H374.14Q375.23 -33.44 375.60 -32.71L386.10 -13.00H386.31V-32.34Q386.31 -33.44 387.40 -33.44H391.72Q392.81 -33.44 392.81 -32.34V-1.09Q392.81 0.00 391.72 0.00H387.92Q386.78 0.00 386.26 -1.04L375.86 -20.38H375.65V-1.09Q375.65 0.00 374.56 0.00ZM431.08 0.00H426.66Q425.57 0.00 425.57 -1.09V-32.34Q425.57 -33.44 426.66 -33.44H443.25Q444.29 -33.44 444.29 -32.34V-28.81Q444.29 -27.72 443.25 -27.72H432.80Q432.17 -27.72 432.17 -27.14V-19.08Q432.17 -18.46 432.80 -18.46H441.69Q442.78 -18.46 442.78 -17.37V-13.88Q442.78 -12.74 441.69 -12.74H432.80Q432.17 -12.74 432.17 -12.17V-1.09Q432.17 0.00 431.08 0.00ZM474.45 0.00H457.34Q456.25 0.00 456.25 -1.09V-32.34Q456.25 -33.44 457.34 -33.44H461.76Q462.85 -33.44 462.85 -32.34V-6.34Q462.85 -5.77 463.48 -5.77H474.45Q475.49 -5.77 475.49 -4.63V-1.09Q475.49 0.00 474.45 0.00ZM499.15 0.00H494.73Q493.64 0.00 493.64 -1.09V-12.22L484.12 -32.29Q483.91 -32.76 484.15 -33.10Q484.38 -33.44 484.85 -33.44H490.36Q491.19 -33.44 491.61 -32.34L496.81 -19.71H497.17L502.27 -32.34Q502.63 -33.44 503.52 -33.44H509.03Q509.55 -33.44 509.78 -33.12Q510.02 -32.81 509.76 -32.29L500.24 -12.22V-1.09Q500.24 0.00 499.15 0.00ZM546.94 -5.51H552.76Q554.48 -5.51 555.23 -6.21Q555.98 -6.92 555.98 -8.53V-11.54Q555.98 -13.16 555.20 -13.83Q554.42 -14.51 552.66 -14.51H546.94Q546.36 -14.51 546.36 -13.94V-6.08Q546.36 -5.51 546.94 -5.51ZM546.94 -19.86H552.24Q553.90 -19.86 554.68 -20.57Q555.46 -21.27 555.46 -22.88V-24.91Q555.46 -26.52 554.71 -27.22Q553.96 -27.92 552.29 -27.92H546.94Q546.36 -27.92 546.36 -27.35V-20.44Q546.36 -19.86 546.94 -19.86ZM539.76 -1.09V-32.34Q539.76 -33.44 540.85 -33.44H553.33Q557.44 -33.44 559.68 -31.25Q561.91 -29.07 561.91 -25.01V-22.88Q561.91 -18.46 557.80 -17.16Q559.88 -16.85 561.13 -15.47Q562.38 -14.09 562.38 -11.54V-8.42Q562.38 -4.37 560.14 -2.18Q557.91 0.00 553.85 0.00H540.85Q539.76 0.00 539.76 -1.09ZM594.00 0.00H576.99Q575.90 0.00 575.90 -1.09V-32.34Q575.90 -33.44 576.99 -33.44H594.00Q595.04 -33.44 595.04 -32.34V-28.81Q595.04 -27.72 594.00 -27.72H583.13Q582.50 -27.72 582.50 -27.14V-20.38Q582.50 -19.81 583.13 -19.81H592.02Q593.11 -19.81 593.11 -18.72V-15.18Q593.11 -14.09 592.02 -14.09H583.13Q582.50 -14.09 582.50 -13.52V-6.29Q582.50 -5.72 583.13 -5.72H594.00Q595.04 -5.72 595.04 -4.63V-1.09Q595.04 0.00 594.00 0.00ZM618.44 0.00H614.07Q612.92 0.00 612.92 -1.09V-27.14Q612.92 -27.72 612.35 -27.72H606.42Q605.33 -27.72 605.33 -28.81V-32.34Q605.33 -33.44 606.42 -33.44H626.08Q627.17 -33.44 627.17 -32.34V-28.81Q627.17 -27.72 626.08 -27.72H620.15Q619.53 -27.72 619.53 -27.14V-1.09Q619.53 0.00 618.44 0.00ZM648.75 0.00H644.38Q643.24 0.00 643.24 -1.09V-27.14Q643.24 -27.72 642.67 -27.72H636.74Q635.65 -27.72 635.65 -28.81V-32.34Q635.65 -33.44 636.74 -33.44H656.40Q657.49 -33.44 657.49 -32.34V-28.81Q657.49 -27.72 656.40 -27.72H650.47Q649.84 -27.72 649.84 -27.14V-1.09Q649.84 0.00 648.75 0.00ZM686.82 0.00H669.81Q668.72 0.00 668.72 -1.09V-32.34Q668.72 -33.44 669.81 -33.44H686.82Q687.86 -33.44 687.86 -32.34V-28.81Q687.86 -27.72 686.82 -27.72H675.95Q675.32 -27.72 675.32 -27.14V-20.38Q675.32 -19.81 675.95 -19.81H684.84Q685.93 -19.81 685.93 -18.72V-15.18Q685.93 -14.09 684.84 -14.09H675.95Q675.32 -14.09 675.32 -13.52V-6.29Q675.32 -5.72 675.95 -5.72H686.82Q687.86 -5.72 687.86 -4.63V-1.09Q687.86 0.00 686.82 0.00ZM706.42 0.00H702.00Q700.91 0.00 700.91 -1.09V-32.34Q700.91 -33.44 702.00 -33.44H714.38Q718.43 -33.44 720.72 -31.20Q723.01 -28.96 723.01 -24.91V-20.85Q723.01 -14.98 718.38 -13.05V-12.84L723.94 -1.25Q724.41 0.00 723.06 0.00H718.85Q717.91 0.00 717.50 -0.21Q717.08 -0.42 716.82 -1.09L711.62 -12.32H708.14Q707.51 -12.32 707.51 -11.75V-1.09Q707.51 0.00 706.42 0.00ZM708.08 -17.63H713.18Q714.84 -17.63 715.62 -18.33Q716.40 -19.03 716.40 -20.59V-24.65Q716.40 -26.26 715.62 -26.99Q714.84 -27.72 713.18 -27.72H708.08Q707.51 -27.72 707.51 -27.14V-18.20Q707.51 -17.63 708.08 -17.63Z" fill="#0a0b12"/>
</svg>
