<svg xmlns="http://www.w3.org/2000/svg" viewBox="0 0 382 174" width="382" height="174" role="img" aria-label="My Drone Can Fly Better">
  <title>My Drone Can Fly Better</title>
  <g stroke="#c6ff5e" stroke-width="13.38" stroke-linecap="round" fill="none"><path d="M164.18 49.51L185.59 6.69"/><path d="M196.30 49.51L217.71 6.69"/></g>
  <path transform="translate(72.29 116.83)" d="M22.63 -29.58H29.44Q30.41 -29.58 30.41 -28.61V-0.97Q30.41 0.00 29.44 0.00H25.67Q24.70 0.00 24.70 -0.97V-22.77H24.52L19.83 -7.36Q19.55 -6.44 18.68 -6.44H14.81Q13.94 -6.44 13.66 -7.36L8.88 -22.82H8.69V-0.97Q8.69 -0.41 8.51 -0.21Q8.33 0.00 7.73 0.00H3.96Q2.99 0.00 2.99 -0.97V-28.61Q2.99 -29.58 3.96 -29.58H10.81Q11.45 -29.58 11.68 -28.93L16.56 -12.70H16.84L21.76 -28.93Q21.90 -29.58 22.63 -29.58ZM53.68 0.00H49.77Q48.81 0.00 48.81 -0.97V-10.81L40.39 -28.57Q40.20 -28.98 40.41 -29.28Q40.62 -29.58 41.03 -29.58H45.91Q46.64 -29.58 47.01 -28.61L51.61 -17.43H51.93L56.44 -28.61Q56.76 -29.58 57.55 -29.58H62.42Q62.88 -29.58 63.09 -29.30Q63.30 -29.03 63.07 -28.57L54.65 -10.81V-0.97Q54.65 0.00 53.68 0.00ZM95.96 -5.06H100.97Q102.44 -5.06 103.06 -5.68Q103.68 -6.30 103.68 -7.77V-21.80Q103.68 -23.28 103.06 -23.90Q102.44 -24.52 100.97 -24.52H95.96Q95.45 -24.52 95.45 -24.01V-5.57Q95.45 -5.06 95.96 -5.06ZM89.61 -0.97V-28.61Q89.61 -29.58 90.57 -29.58H101.94Q105.52 -29.58 107.53 -27.62Q109.53 -25.67 109.53 -22.08V-7.50Q109.53 -3.91 107.53 -1.96Q105.52 0.00 101.94 0.00H90.57Q89.61 0.00 89.61 -0.97ZM126.36 0.00H122.45Q121.49 0.00 121.49 -0.97V-28.61Q121.49 -29.58 122.45 -29.58H133.40Q136.99 -29.58 139.01 -27.60Q141.04 -25.62 141.04 -22.03V-18.45Q141.04 -13.25 136.94 -11.55V-11.36L141.86 -1.10Q142.28 0.00 141.08 0.00H137.36Q136.53 0.00 136.16 -0.18Q135.79 -0.37 135.56 -0.97L130.96 -10.90H127.88Q127.33 -10.90 127.33 -10.40V-0.97Q127.33 0.00 126.36 0.00ZM127.83 -15.59H132.34Q133.81 -15.59 134.50 -16.21Q135.19 -16.84 135.19 -18.22V-21.80Q135.19 -23.23 134.50 -23.87Q133.81 -24.52 132.34 -24.52H127.83Q127.33 -24.52 127.33 -24.01V-16.10Q127.33 -15.59 127.83 -15.59ZM161.14 -5.06H164.40Q165.88 -5.06 166.50 -5.68Q167.12 -6.30 167.12 -7.77V-21.80Q167.12 -23.28 166.50 -23.90Q165.88 -24.52 164.40 -24.52H161.14Q159.67 -24.52 159.07 -23.90Q158.47 -23.28 158.47 -21.80V-7.77Q158.47 -6.30 159.07 -5.68Q159.67 -5.06 161.14 -5.06ZM165.37 0.00H160.22Q156.58 0.00 154.61 -1.93Q152.63 -3.86 152.63 -7.50V-22.08Q152.63 -25.71 154.61 -27.65Q156.58 -29.58 160.22 -29.58H165.37Q169.00 -29.58 170.98 -27.65Q172.96 -25.71 172.96 -22.08V-7.50Q172.96 -3.86 170.98 -1.93Q169.00 0.00 165.37 0.00ZM189.70 0.00H185.89Q184.92 0.00 184.92 -0.97V-28.61Q184.92 -29.58 185.89 -29.58H189.34Q190.30 -29.58 190.62 -28.93L199.92 -11.50H200.10V-28.61Q200.10 -29.58 201.07 -29.58H204.88Q205.85 -29.58 205.85 -28.61V-0.97Q205.85 0.00 204.88 0.00H201.53Q200.51 0.00 200.05 -0.92L190.85 -18.03H190.67V-0.97Q190.67 0.00 189.70 0.00ZM234.28 0.00H219.24Q218.27 0.00 218.27 -0.97V-28.61Q218.27 -29.58 219.24 -29.58H234.28Q235.20 -29.58 235.20 -28.61V-25.48Q235.20 -24.52 234.28 -24.52H224.66Q224.11 -24.52 224.11 -24.01V-18.03Q224.11 -17.53 224.66 -17.53H232.53Q233.50 -17.53 233.50 -16.56V-13.43Q233.50 -12.47 232.53 -12.47H224.66Q224.11 -12.47 224.11 -11.96V-5.57Q224.11 -5.06 224.66 -5.06H234.28Q235.20 -5.06 235.20 -4.09V-0.97Q235.20 0.00 234.28 0.00Z" fill="#eef1f8"/>
  <path transform="translate(0.00 174.33)" d="M15.13 0.00H10.12Q6.49 0.00 4.51 -1.93Q2.53 -3.86 2.53 -7.50V-22.08Q2.53 -25.71 4.51 -27.65Q6.49 -29.58 10.12 -29.58H15.13Q18.72 -29.58 20.72 -27.62Q22.72 -25.67 22.72 -22.08V-19.92Q22.72 -18.91 21.71 -18.91H17.85Q16.88 -18.91 16.88 -19.92V-21.80Q16.88 -23.28 16.26 -23.90Q15.64 -24.52 14.17 -24.52H11.04Q9.61 -24.52 8.99 -23.90Q8.37 -23.28 8.37 -21.80V-7.77Q8.37 -6.30 8.99 -5.68Q9.61 -5.06 11.04 -5.06H14.17Q15.64 -5.06 16.26 -5.68Q16.88 -6.30 16.88 -7.77V-9.66Q16.88 -10.67 17.85 -10.67H21.71Q22.72 -10.67 22.72 -9.66V-7.50Q22.72 -3.91 20.72 -1.96Q18.72 0.00 15.13 0.00ZM37.26 0.00H32.84Q32.02 0.00 32.29 -0.97L39.56 -28.61Q39.88 -29.58 40.94 -29.58H47.06Q48.21 -29.58 48.44 -28.61L55.71 -0.97Q55.98 0.00 55.15 0.00H50.74Q50.23 0.00 50.05 -0.21Q49.86 -0.41 49.77 -0.97L48.48 -6.03H39.51L38.23 -0.97Q38.13 -0.41 37.93 -0.21Q37.72 0.00 37.26 0.00ZM43.93 -24.01 40.62 -10.72H47.43L44.11 -24.01ZM71.02 0.00H67.21Q66.24 0.00 66.24 -0.97V-28.61Q66.24 -29.58 67.21 -29.58H70.66Q71.62 -29.58 71.94 -28.93L81.24 -11.50H81.42V-28.61Q81.42 -29.58 82.39 -29.58H86.20Q87.17 -29.58 87.17 -28.61V-0.97Q87.17 0.00 86.20 0.00H82.85Q81.83 0.00 81.37 -0.92L72.17 -18.03H71.99V-0.97Q71.99 0.00 71.02 0.00ZM121.03 0.00H117.12Q116.15 0.00 116.15 -0.97V-28.61Q116.15 -29.58 117.12 -29.58H131.79Q132.71 -29.58 132.71 -28.61V-25.48Q132.71 -24.52 131.79 -24.52H122.54Q121.99 -24.52 121.99 -24.01V-16.88Q121.99 -16.33 122.54 -16.33H130.41Q131.38 -16.33 131.38 -15.36V-12.28Q131.38 -11.27 130.41 -11.27H122.54Q121.99 -11.27 121.99 -10.76V-0.97Q121.99 0.00 121.03 0.00ZM159.39 0.00H144.26Q143.29 0.00 143.29 -0.97V-28.61Q143.29 -29.58 144.26 -29.58H148.17Q149.13 -29.58 149.13 -28.61V-5.61Q149.13 -5.11 149.68 -5.11H159.39Q160.31 -5.11 160.31 -4.09V-0.97Q160.31 0.00 159.39 0.00ZM181.24 0.00H177.33Q176.36 0.00 176.36 -0.97V-10.81L167.95 -28.57Q167.76 -28.98 167.97 -29.28Q168.18 -29.58 168.59 -29.58H173.47Q174.20 -29.58 174.57 -28.61L179.17 -17.43H179.49L184.00 -28.61Q184.32 -29.58 185.10 -29.58H189.98Q190.44 -29.58 190.65 -29.30Q190.85 -29.03 190.62 -28.57L182.21 -10.81V-0.97Q182.21 0.00 181.24 0.00ZM223.51 -4.88H228.67Q230.18 -4.88 230.85 -5.50Q231.52 -6.12 231.52 -7.54V-10.21Q231.52 -11.64 230.83 -12.24Q230.14 -12.83 228.57 -12.83H223.51Q223.01 -12.83 223.01 -12.33V-5.38Q223.01 -4.88 223.51 -4.88ZM223.51 -17.57H228.21Q229.68 -17.57 230.37 -18.19Q231.06 -18.81 231.06 -20.24V-22.03Q231.06 -23.46 230.39 -24.08Q229.72 -24.70 228.25 -24.70H223.51Q223.01 -24.70 223.01 -24.20V-18.08Q223.01 -17.57 223.51 -17.57ZM217.17 -0.97V-28.61Q217.17 -29.58 218.13 -29.58H229.17Q232.81 -29.58 234.78 -27.65Q236.76 -25.71 236.76 -22.13V-20.24Q236.76 -16.33 233.13 -15.18Q234.97 -14.90 236.07 -13.68Q237.18 -12.47 237.18 -10.21V-7.45Q237.18 -3.86 235.20 -1.93Q233.22 0.00 229.63 0.00H218.13Q217.17 0.00 217.17 -0.97ZM265.14 0.00H250.10Q249.14 0.00 249.14 -0.97V-28.61Q249.14 -29.58 250.10 -29.58H265.14Q266.06 -29.58 266.06 -28.61V-25.48Q266.06 -24.52 265.14 -24.52H255.53Q254.98 -24.52 254.98 -24.01V-18.03Q254.98 -17.53 255.53 -17.53H263.40Q264.36 -17.53 264.36 -16.56V-13.43Q264.36 -12.47 263.40 -12.47H255.53Q254.98 -12.47 254.98 -11.96V-5.57Q254.98 -5.06 255.53 -5.06H265.14Q266.06 -5.06 266.06 -4.09V-0.97Q266.06 0.00 265.14 0.00ZM286.76 0.00H282.90Q281.89 0.00 281.89 -0.97V-24.01Q281.89 -24.52 281.38 -24.52H276.14Q275.17 -24.52 275.17 -25.48V-28.61Q275.17 -29.58 276.14 -29.58H293.53Q294.49 -29.58 294.49 -28.61V-25.48Q294.49 -24.52 293.53 -24.52H288.28Q287.73 -24.52 287.73 -24.01V-0.97Q287.73 0.00 286.76 0.00ZM313.58 0.00H309.72Q308.71 0.00 308.71 -0.97V-24.01Q308.71 -24.52 308.20 -24.52H302.96Q301.99 -24.52 301.99 -25.48V-28.61Q301.99 -29.58 302.96 -29.58H320.34Q321.31 -29.58 321.31 -28.61V-25.48Q321.31 -24.52 320.34 -24.52H315.10Q314.55 -24.52 314.55 -24.01V-0.97Q314.55 0.00 313.58 0.00ZM347.25 0.00H332.21Q331.25 0.00 331.25 -0.97V-28.61Q331.25 -29.58 332.21 -29.58H347.25Q348.17 -29.58 348.17 -28.61V-25.48Q348.17 -24.52 347.25 -24.52H337.64Q337.09 -24.52 337.09 -24.01V-18.03Q337.09 -17.53 337.64 -17.53H345.51Q346.47 -17.53 346.47 -16.56V-13.43Q346.47 -12.47 345.51 -12.47H337.64Q337.09 -12.47 337.09 -11.96V-5.57Q337.09 -5.06 337.64 -5.06H347.25Q348.17 -5.06 348.17 -4.09V-0.97Q348.17 0.00 347.25 0.00ZM364.60 0.00H360.69Q359.72 0.00 359.72 -0.97V-28.61Q359.72 -29.58 360.69 -29.58H371.63Q375.22 -29.58 377.25 -27.60Q379.27 -25.62 379.27 -22.03V-18.45Q379.27 -13.25 375.18 -11.55V-11.36L380.10 -1.10Q380.51 0.00 379.32 0.00H375.59Q374.76 0.00 374.39 -0.18Q374.03 -0.37 373.80 -0.97L369.20 -10.90H366.11Q365.56 -10.90 365.56 -10.40V-0.97Q365.56 0.00 364.60 0.00ZM366.07 -15.59H370.58Q372.05 -15.59 372.74 -16.21Q373.43 -16.84 373.43 -18.22V-21.80Q373.43 -23.23 372.74 -23.87Q372.05 -24.52 370.58 -24.52H366.07Q365.56 -24.52 365.56 -24.01V-16.10Q365.56 -15.59 366.07 -15.59Z" fill="#eef1f8"/>
</svg>
